<?xml version="1.0" encoding="iso-8859-1"?>
<!-- Uploaded to: SVG Repo, www.svgrepo.com, Generator: SVG Repo Mixer Tools -->
<svg fill="white" height="24px" width="24px" version="1.1" id="Layer_1" xmlns="http://www.w3.org/2000/svg" xmlns:xlink="http://www.w3.org/1999/xlink" 
	 viewBox="0 0 512 512" xml:space="preserve">
<g>
	<g>
		<rect x="177.633" y="242.709" width="156.735" height="15.673"/>
	</g>
</g>
<g>
	<g>
		<rect x="190.694" y="274.056" width="130.612" height="15.673"/>
	</g>
</g>
<g>
	<g>
		<rect x="203.755" y="305.403" width="104.49" height="15.673"/>
	</g>
</g>
<g>
	<g>
		<polygon points="158.303,0 158.303,117.551 173.977,117.551 173.977,15.673 187.56,15.673 187.56,117.551 203.234,117.551 
			203.234,0 		"/>
	</g>
</g>
<g>
	<g>
		<polygon points="308.766,0 308.766,117.551 324.44,117.551 324.44,15.673 338.023,15.673 338.023,117.551 353.697,117.551 
			353.697,0 		"/>
	</g>
</g>
<g>
	<g>
		<path d="M112.327,130.612v67.918h31.852l9.311,139.665c0.637,9.572,8.652,17.069,18.245,17.069h12.168v33.959
			c0,10.082,8.203,18.286,18.286,18.286h27.69V512h52.245V407.51h27.69c10.082,0,18.286-8.203,18.286-18.286v-33.959h12.168
			c9.593,0,17.608-7.498,18.245-17.069l9.311-139.665h31.852v-67.918H112.327z M266.449,496.327h-20.898V407.51h20.898V496.327z
			 M312.424,389.224c0,1.44-1.172,2.612-2.612,2.612H202.188c-1.44,0-2.612-1.172-2.612-2.612v-33.959h112.849V389.224z
			 M342.872,337.154c-0.091,1.368-1.236,2.438-2.606,2.438H171.734c-1.371,0-2.515-1.071-2.606-2.439l-9.241-138.622h192.227
			L342.872,337.154z M384,182.857H128v-36.571h256V182.857z"/>
	</g>
</g>
</svg>