<?xml version="1.0" encoding="iso-8859-1"?>
<!-- Uploaded to: SVG Repo, www.svgrepo.com, Generator: SVG Repo Mixer Tools -->
<svg fill="white" height="24px" width="24px" version="1.1" id="Layer_1" xmlns="http://www.w3.org/2000/svg" xmlns:xlink="http://www.w3.org/1999/xlink" 
	 viewBox="0 0 512 512" xml:space="preserve">
<g>
	<g>
		<path d="M256,0c-84.984,0-154.122,69.14-154.122,154.122v250.776C101.878,463.955,149.923,512,208.98,512h94.041
			c59.057,0,107.102-48.045,107.102-107.102V154.122C410.122,69.14,340.984,0,256,0z M274.286,77.061v20.898
			c0,10.082-8.203,18.286-18.286,18.286s-18.286-8.203-18.286-18.286V77.061c0-10.082,8.203-18.286,18.286-18.286
			S274.286,66.979,274.286,77.061z M274.286,126.553v23.651c0,10.082-8.203,18.286-18.286,18.286s-18.286-8.203-18.286-18.286
			v-23.651c5.283,3.391,11.556,5.366,18.286,5.366S269.003,129.942,274.286,126.553z M117.551,154.122
			c0-73.71,57.904-134.145,130.612-138.222v28.126c-14.958,3.548-26.122,17.009-26.122,33.036v73.143
			c0,16.028,11.165,29.488,26.122,33.037v28.35H117.551V154.122z M394.449,404.898c0,50.414-41.014,91.429-91.429,91.429H208.98
			c-50.414,0-91.429-41.014-91.429-91.429V227.265h276.898V404.898z M394.449,211.592H263.837v-28.351
			c14.958-3.549,26.122-17.009,26.122-33.037V77.061c0-16.028-11.165-29.488-26.122-33.036V15.9
			c72.708,4.077,130.612,64.512,130.612,138.222V211.592z"/>
	</g>
</g>
</svg>